<svg width="608" height="608" viewBox="0 0 608 608" fill="none" xmlns="http://www.w3.org/2000/svg">
<path d="M0 0H608V608H0V0Z" fill="#282A36"/>
<g filter="url(#filter0_i)">
<path d="M0 71H608V608H0V71Z" fill="#FFB86C"/>
</g>
<path d="M32 96H64V128H32V96Z" fill="#282A36"/>
<path d="M32 128H64V160H32V128Z" fill="#44475A"/>
<path d="M64 288H96V320H64V288Z" fill="#44475A"/>
<path d="M32 512H64V544H32V512Z" fill="#44475A"/>
<path d="M64 480H96V512H64V480Z" fill="#44475A"/>
<path d="M64 544H96V576H64V544Z" fill="#44475A"/>
<path d="M32 448H64V480H32V448Z" fill="#44475A"/>
<path d="M64 416H96V448H64V416Z" fill="#44475A"/>
<path d="M32 384H64V416H32V384Z" fill="#44475A"/>
<path d="M64 352H96V384H64V352Z" fill="#44475A"/>
<path d="M32 320H64V352H32V320Z" fill="#44475A"/>
<path d="M32 256H64V288H32V256Z" fill="#44475A"/>
<path d="M64 224H96V256H64V224Z" fill="#44475A"/>
<path d="M32 192H64V224H32V192Z" fill="#44475A"/>
<path d="M64 96H96V128H64V96Z" fill="#44475A"/>
<path d="M64 160H96V192H64V160Z" fill="#44475A"/>
<path d="M64 128H96V160H64V128Z" fill="#282A36"/>
<path d="M32 544H64V576H32V544Z" fill="#282A36"/>
<path d="M64 512H96V544H64V512Z" fill="#282A36"/>
<path d="M32 480H64V512H32V480Z" fill="#282A36"/>
<path d="M64 448H96V480H64V448Z" fill="#282A36"/>
<path d="M32 416H64V448H32V416Z" fill="#282A36"/>
<path d="M64 384H96V416H64V384Z" fill="#282A36"/>
<path d="M32 352H64V384H32V352Z" fill="#282A36"/>
<path d="M64 320H96V352H64V320Z" fill="#282A36"/>
<path d="M32 288H64V320H32V288Z" fill="#282A36"/>
<path d="M64 256H96V288H64V256Z" fill="#282A36"/>
<path d="M32 224H64V256H32V224Z" fill="#282A36"/>
<path d="M64 192H96V224H64V192Z" fill="#282A36"/>
<path d="M32 160H64V192H32V160Z" fill="#282A36"/>
<path d="M96 96H128V128H96V96Z" fill="#282A36"/>
<path d="M96 128H128V160H96V128Z" fill="#44475A"/>
<path d="M128 288H160V320H128V288Z" fill="#44475A"/>
<path d="M96 512H128V544H96V512Z" fill="#44475A"/>
<path d="M128 480H160V512H128V480Z" fill="#44475A"/>
<path d="M128 544H160V576H128V544Z" fill="#44475A"/>
<path d="M96 448H128V480H96V448Z" fill="#44475A"/>
<path d="M128 416H160V448H128V416Z" fill="#44475A"/>
<path d="M96 384H128V416H96V384Z" fill="#44475A"/>
<path d="M128 352H160V384H128V352Z" fill="#44475A"/>
<path d="M96 320H128V352H96V320Z" fill="#44475A"/>
<path d="M96 256H128V288H96V256Z" fill="#44475A"/>
<path d="M128 224H160V256H128V224Z" fill="#44475A"/>
<path d="M96 192H128V224H96V192Z" fill="#44475A"/>
<path d="M128 96H160V128H128V96Z" fill="#44475A"/>
<path d="M128 160H160V192H128V160Z" fill="#44475A"/>
<path d="M128 128H160V160H128V128Z" fill="#282A36"/>
<path d="M96 544H128V576H96V544Z" fill="#282A36"/>
<path d="M128 512H160V544H128V512Z" fill="#282A36"/>
<path d="M96 480H128V512H96V480Z" fill="#282A36"/>
<path d="M128 448H160V480H128V448Z" fill="#282A36"/>
<path d="M96 416H128V448H96V416Z" fill="#282A36"/>
<path d="M128 384H160V416H128V384Z" fill="#282A36"/>
<path d="M96 352H128V384H96V352Z" fill="#282A36"/>
<path d="M128 320H160V352H128V320Z" fill="#282A36"/>
<path d="M96 288H128V320H96V288Z" fill="#282A36"/>
<path d="M128 256H160V288H128V256Z" fill="#282A36"/>
<path d="M96 224H128V256H96V224Z" fill="#282A36"/>
<path d="M128 192H160V224H128V192Z" fill="#282A36"/>
<path d="M96 160H128V192H96V160Z" fill="#282A36"/>
<path d="M160 96H192V128H160V96Z" fill="#282A36"/>
<path d="M160 128H192V160H160V128Z" fill="#44475A"/>
<path d="M192 288H224V320H192V288Z" fill="#44475A"/>
<path d="M160 512H192V544H160V512Z" fill="#44475A"/>
<path d="M192 480H224V512H192V480Z" fill="#44475A"/>
<path d="M192 544H224V576H192V544Z" fill="#44475A"/>
<path d="M160 448H192V480H160V448Z" fill="#44475A"/>
<path d="M192 416H224V448H192V416Z" fill="#44475A"/>
<path d="M160 384H192V416H160V384Z" fill="#44475A"/>
<path d="M192 352H224V384H192V352Z" fill="#44475A"/>
<path d="M160 320H192V352H160V320Z" fill="#44475A"/>
<path d="M160 256H192V288H160V256Z" fill="#44475A"/>
<path d="M192 224H224V256H192V224Z" fill="#44475A"/>
<path d="M160 192H192V224H160V192Z" fill="#44475A"/>
<path d="M192 96H224V128H192V96Z" fill="#44475A"/>
<path d="M192 160H224V192H192V160Z" fill="#44475A"/>
<path d="M192 128H224V160H192V128Z" fill="#282A36"/>
<path d="M160 544H192V576H160V544Z" fill="#282A36"/>
<path d="M192 512H224V544H192V512Z" fill="#282A36"/>
<path d="M160 480H192V512H160V480Z" fill="#282A36"/>
<path d="M192 448H224V480H192V448Z" fill="#282A36"/>
<path d="M160 416H192V448H160V416Z" fill="#282A36"/>
<path d="M192 384H224V416H192V384Z" fill="#282A36"/>
<path d="M160 352H192V384H160V352Z" fill="#282A36"/>
<path d="M192 320H224V352H192V320Z" fill="#282A36"/>
<path d="M160 288H192V320H160V288Z" fill="#282A36"/>
<path d="M192 256H224V288H192V256Z" fill="#282A36"/>
<path d="M160 224H192V256H160V224Z" fill="#282A36"/>
<path d="M192 192H224V224H192V192Z" fill="#282A36"/>
<path d="M160 160H192V192H160V160Z" fill="#282A36"/>
<path d="M224 96H256V128H224V96Z" fill="#282A36"/>
<path d="M224 128H256V160H224V128Z" fill="#44475A"/>
<path d="M256 288H288V320H256V288Z" fill="#44475A"/>
<path d="M224 512H256V544H224V512Z" fill="#44475A"/>
<path d="M256 480H288V512H256V480Z" fill="#44475A"/>
<path d="M256 544H288V576H256V544Z" fill="#44475A"/>
<path d="M224 448H256V480H224V448Z" fill="#44475A"/>
<path d="M256 416H288V448H256V416Z" fill="#44475A"/>
<path d="M224 384H256V416H224V384Z" fill="#44475A"/>
<path d="M256 352H288V384H256V352Z" fill="#44475A"/>
<path d="M224 320H256V352H224V320Z" fill="#44475A"/>
<path d="M224 256H256V288H224V256Z" fill="#44475A"/>
<path d="M256 224H288V256H256V224Z" fill="#44475A"/>
<path d="M224 192H256V224H224V192Z" fill="#44475A"/>
<path d="M256 96H288V128H256V96Z" fill="#44475A"/>
<path d="M256 160H288V192H256V160Z" fill="#44475A"/>
<path d="M256 128H288V160H256V128Z" fill="#282A36"/>
<path d="M224 544H256V576H224V544Z" fill="#282A36"/>
<path d="M256 512H288V544H256V512Z" fill="#282A36"/>
<path d="M224 480H256V512H224V480Z" fill="#282A36"/>
<path d="M256 448H288V480H256V448Z" fill="#282A36"/>
<path d="M224 416H256V448H224V416Z" fill="#282A36"/>
<path d="M256 384H288V416H256V384Z" fill="#282A36"/>
<path d="M224 352H256V384H224V352Z" fill="#282A36"/>
<path d="M256 320H288V352H256V320Z" fill="#282A36"/>
<path d="M224 288H256V320H224V288Z" fill="#282A36"/>
<path d="M256 256H288V288H256V256Z" fill="#282A36"/>
<path d="M224 224H256V256H224V224Z" fill="#282A36"/>
<path d="M256 192H288V224H256V192Z" fill="#282A36"/>
<path d="M224 160H256V192H224V160Z" fill="#282A36"/>
<path d="M288 96H320V128H288V96Z" fill="#282A36"/>
<path d="M288 128H320V160H288V128Z" fill="#44475A"/>
<path d="M320 288H352V320H320V288Z" fill="#44475A"/>
<path d="M288 512H320V544H288V512Z" fill="#44475A"/>
<path d="M320 480H352V512H320V480Z" fill="#44475A"/>
<path d="M320 544H352V576H320V544Z" fill="#44475A"/>
<path d="M288 448H320V480H288V448Z" fill="#44475A"/>
<path d="M320 416H352V448H320V416Z" fill="#44475A"/>
<path d="M288 384H320V416H288V384Z" fill="#44475A"/>
<path d="M320 352H352V384H320V352Z" fill="#44475A"/>
<path d="M288 320H320V352H288V320Z" fill="#44475A"/>
<path d="M288 256H320V288H288V256Z" fill="#44475A"/>
<path d="M320 224H352V256H320V224Z" fill="#44475A"/>
<path d="M288 192H320V224H288V192Z" fill="#44475A"/>
<path d="M320 96H352V128H320V96Z" fill="#44475A"/>
<path d="M320 160H352V192H320V160Z" fill="#44475A"/>
<path d="M320 128H352V160H320V128Z" fill="#282A36"/>
<path d="M288 544H320V576H288V544Z" fill="#282A36"/>
<path d="M320 512H352V544H320V512Z" fill="#282A36"/>
<path d="M288 480H320V512H288V480Z" fill="#282A36"/>
<path d="M320 448H352V480H320V448Z" fill="#282A36"/>
<path d="M288 416H320V448H288V416Z" fill="#282A36"/>
<path d="M320 384H352V416H320V384Z" fill="#282A36"/>
<path d="M288 352H320V384H288V352Z" fill="#282A36"/>
<path d="M320 320H352V352H320V320Z" fill="#282A36"/>
<path d="M288 288H320V320H288V288Z" fill="#282A36"/>
<path d="M320 256H352V288H320V256Z" fill="#282A36"/>
<path d="M288 224H320V256H288V224Z" fill="#282A36"/>
<path d="M320 192H352V224H320V192Z" fill="#282A36"/>
<path d="M288 160H320V192H288V160Z" fill="#282A36"/>
<path d="M352 96H384V128H352V96Z" fill="#282A36"/>
<path d="M352 128H384V160H352V128Z" fill="#44475A"/>
<path d="M384 288H416V320H384V288Z" fill="#44475A"/>
<path d="M352 512H384V544H352V512Z" fill="#44475A"/>
<path d="M384 480H416V512H384V480Z" fill="#44475A"/>
<path d="M384 544H416V576H384V544Z" fill="#44475A"/>
<path d="M352 448H384V480H352V448Z" fill="#44475A"/>
<path d="M384 416H416V448H384V416Z" fill="#44475A"/>
<path d="M352 384H384V416H352V384Z" fill="#44475A"/>
<path d="M384 352H416V384H384V352Z" fill="#44475A"/>
<path d="M352 320H384V352H352V320Z" fill="#44475A"/>
<path d="M352 256H384V288H352V256Z" fill="#44475A"/>
<path d="M384 224H416V256H384V224Z" fill="#44475A"/>
<path d="M352 192H384V224H352V192Z" fill="#44475A"/>
<path d="M384 96H416V128H384V96Z" fill="#44475A"/>
<path d="M384 160H416V192H384V160Z" fill="#44475A"/>
<path d="M384 128H416V160H384V128Z" fill="#282A36"/>
<path d="M352 544H384V576H352V544Z" fill="#282A36"/>
<path d="M384 512H416V544H384V512Z" fill="#282A36"/>
<path d="M352 480H384V512H352V480Z" fill="#282A36"/>
<path d="M384 448H416V480H384V448Z" fill="#282A36"/>
<path d="M352 416H384V448H352V416Z" fill="#282A36"/>
<path d="M384 384H416V416H384V384Z" fill="#282A36"/>
<path d="M352 352H384V384H352V352Z" fill="#282A36"/>
<path d="M384 320H416V352H384V320Z" fill="#282A36"/>
<path d="M352 288H384V320H352V288Z" fill="#282A36"/>
<path d="M384 256H416V288H384V256Z" fill="#282A36"/>
<path d="M352 224H384V256H352V224Z" fill="#282A36"/>
<path d="M384 192H416V224H384V192Z" fill="#282A36"/>
<path d="M352 160H384V192H352V160Z" fill="#282A36"/>
<path d="M416 96H448V128H416V96Z" fill="#282A36"/>
<path d="M416 128H448V160H416V128Z" fill="#44475A"/>
<path d="M448 288H480V320H448V288Z" fill="#44475A"/>
<path d="M416 512H448V544H416V512Z" fill="#44475A"/>
<path d="M448 480H480V512H448V480Z" fill="#44475A"/>
<path d="M448 544H480V576H448V544Z" fill="#44475A"/>
<path d="M416 448H448V480H416V448Z" fill="#44475A"/>
<path d="M448 416H480V448H448V416Z" fill="#44475A"/>
<path d="M416 384H448V416H416V384Z" fill="#44475A"/>
<path d="M448 352H480V384H448V352Z" fill="#44475A"/>
<path d="M416 320H448V352H416V320Z" fill="#44475A"/>
<path d="M416 256H448V288H416V256Z" fill="#44475A"/>
<path d="M448 224H480V256H448V224Z" fill="#44475A"/>
<path d="M416 192H448V224H416V192Z" fill="#44475A"/>
<path d="M448 96H480V128H448V96Z" fill="#44475A"/>
<path d="M448 160H480V192H448V160Z" fill="#44475A"/>
<path d="M448 128H480V160H448V128Z" fill="#282A36"/>
<path d="M416 544H448V576H416V544Z" fill="#282A36"/>
<path d="M448 512H480V544H448V512Z" fill="#282A36"/>
<path d="M416 480H448V512H416V480Z" fill="#282A36"/>
<path d="M448 448H480V480H448V448Z" fill="#282A36"/>
<path d="M416 416H448V448H416V416Z" fill="#282A36"/>
<path d="M448 384H480V416H448V384Z" fill="#282A36"/>
<path d="M416 352H448V384H416V352Z" fill="#282A36"/>
<path d="M448 320H480V352H448V320Z" fill="#282A36"/>
<path d="M416 288H448V320H416V288Z" fill="#282A36"/>
<path d="M448 256H480V288H448V256Z" fill="#282A36"/>
<path d="M416 224H448V256H416V224Z" fill="#282A36"/>
<path d="M448 192H480V224H448V192Z" fill="#282A36"/>
<path d="M416 160H448V192H416V160Z" fill="#282A36"/>
<path d="M480 96H512V128H480V96Z" fill="#282A36"/>
<path d="M480 128H512V160H480V128Z" fill="#44475A"/>
<path d="M512 288H544V320H512V288Z" fill="#44475A"/>
<path d="M480 512H512V544H480V512Z" fill="#44475A"/>
<path d="M512 480H544V512H512V480Z" fill="#44475A"/>
<path d="M512 544H544V576H512V544Z" fill="#44475A"/>
<path d="M480 448H512V480H480V448Z" fill="#44475A"/>
<path d="M512 416H544V448H512V416Z" fill="#44475A"/>
<path d="M480 384H512V416H480V384Z" fill="#44475A"/>
<path d="M512 352H544V384H512V352Z" fill="#44475A"/>
<path d="M480 320H512V352H480V320Z" fill="#44475A"/>
<path d="M480 256H512V288H480V256Z" fill="#44475A"/>
<path d="M512 224H544V256H512V224Z" fill="#44475A"/>
<path d="M480 192H512V224H480V192Z" fill="#44475A"/>
<path d="M512 96H544V128H512V96Z" fill="#44475A"/>
<path d="M512 160H544V192H512V160Z" fill="#44475A"/>
<path d="M512 128H544V160H512V128Z" fill="#282A36"/>
<path d="M480 544H512V576H480V544Z" fill="#282A36"/>
<path d="M512 512H544V544H512V512Z" fill="#282A36"/>
<path d="M480 480H512V512H480V480Z" fill="#282A36"/>
<path d="M512 448H544V480H512V448Z" fill="#282A36"/>
<path d="M480 416H512V448H480V416Z" fill="#282A36"/>
<path d="M512 384H544V416H512V384Z" fill="#282A36"/>
<path d="M480 352H512V384H480V352Z" fill="#282A36"/>
<path d="M512 320H544V352H512V320Z" fill="#282A36"/>
<path d="M480 288H512V320H480V288Z" fill="#282A36"/>
<path d="M512 256H544V288H512V256Z" fill="#282A36"/>
<path d="M480 224H512V256H480V224Z" fill="#282A36"/>
<path d="M512 192H544V224H512V192Z" fill="#282A36"/>
<path d="M480 160H512V192H480V160Z" fill="#282A36"/>
<path d="M544 96H576V128H544V96Z" fill="#282A36"/>
<path d="M544 128H576V160H544V128Z" fill="#44475A"/>
<path d="M544 512H576V544H544V512Z" fill="#44475A"/>
<path d="M544 448H576V480H544V448Z" fill="#44475A"/>
<path d="M544 384H576V416H544V384Z" fill="#44475A"/>
<path d="M544 320H576V352H544V320Z" fill="#44475A"/>
<path d="M544 256H576V288H544V256Z" fill="#44475A"/>
<path d="M544 192H576V224H544V192Z" fill="#44475A"/>
<path d="M544 544H576V576H544V544Z" fill="#282A36"/>
<path d="M544 480H576V512H544V480Z" fill="#282A36"/>
<path d="M544 416H576V448H544V416Z" fill="#282A36"/>
<path d="M544 352H576V384H544V352Z" fill="#282A36"/>
<path d="M544 288H576V320H544V288Z" fill="#282A36"/>
<path d="M544 224H576V256H544V224Z" fill="#282A36"/>
<path d="M544 160H576V192H544V160Z" fill="#282A36"/>
<path d="M59 36C59 40.2435 57.3143 44.3131 54.3137 47.3137C51.3131 50.3143 47.2435 52 43 52C38.7565 52 34.6869 50.3143 31.6863 47.3137C28.6857 44.3131 27 40.2435 27 36L43 36H59Z" fill="#FF5555"/>
<path d="M59 36C59 40.2435 57.3143 44.3131 54.3137 47.3137C51.3131 50.3143 47.2435 52 43 52C38.7565 52 34.6869 50.3143 31.6863 47.3137C28.6857 44.3131 27 40.2435 27 36H29.1055C29.1055 39.685 30.5694 43.2192 33.1751 45.8249C35.7808 48.4306 39.315 49.8945 43 49.8945C46.685 49.8945 50.2192 48.4306 52.8249 45.8249C55.4306 43.2192 56.8945 39.685 56.8945 36H59Z" fill="#50FA7B"/>
<path d="M36 39.5C36 39.7761 35.7761 40.5 35.5 40.5C35.2239 40.5 35 39.7761 35 39.5C35 39.2239 35.2239 39 35.5 39C35.7761 39 36 39.2239 36 39.5Z" fill="#44475A"/>
<path d="M42 39.5C42 39.7761 41.7761 40.5 41.5 40.5C41.2239 40.5 41 39.7761 41 39.5C41 39.2239 41.2239 39 41.5 39C41.7761 39 42 39.2239 42 39.5Z" fill="#44475A"/>
<path d="M49 39.5C49 39.7761 48.7761 40.5 48.5 40.5C48.2239 40.5 48 39.7761 48 39.5C48 39.2239 48.2239 39 48.5 39C48.7761 39 49 39.2239 49 39.5Z" fill="#44475A"/>
<path d="M44 44.5C44 44.7761 43.7761 45.5 43.5 45.5C43.2239 45.5 43 44.7761 43 44.5C43 44.2239 43.2239 44 43.5 44C43.7761 44 44 44.2239 44 44.5Z" fill="#44475A"/>
<path d="M38 42.5C38 42.7761 37.7761 43.5 37.5 43.5C37.2239 43.5 37 42.7761 37 42.5C37 42.2239 37.2239 42 37.5 42C37.7761 42 38 42.2239 38 42.5Z" fill="#44475A"/>
<path d="M50 43.5C50 43.7761 49.7761 44.5 49.5 44.5C49.2239 44.5 49 43.7761 49 43.5C49 43.2239 49.2239 43 49.5 43C49.7761 43 50 43.2239 50 43.5Z" fill="#44475A"/>
<defs>
<filter id="filter0_i" x="0" y="71" width="608" height="541" filterUnits="userSpaceOnUse" color-interpolation-filters="sRGB">
<feFlood flood-opacity="0" result="BackgroundImageFix"/>
<feBlend mode="normal" in="SourceGraphic" in2="BackgroundImageFix" result="shape"/>
<feColorMatrix in="SourceAlpha" type="matrix" values="0 0 0 0 0 0 0 0 0 0 0 0 0 0 0 0 0 0 127 0" result="hardAlpha"/>
<feOffset dy="4"/>
<feGaussianBlur stdDeviation="2"/>
<feComposite in2="hardAlpha" operator="arithmetic" k2="-1" k3="1"/>
<feColorMatrix type="matrix" values="0 0 0 0 0 0 0 0 0 0 0 0 0 0 0 0 0 0 0.25 0"/>
<feBlend mode="normal" in2="shape" result="effect1_innerShadow"/>
</filter>
</defs>
</svg>
